<svg width="248" height="248" viewBox="0 0 248 248" fill="none" xmlns="http://www.w3.org/2000/svg">
<g clip-path="url(#clip0_3557_1814)">
<rect width="248" height="248" rx="16" fill="white"/>
<rect width="248" height="248" fill="#FFFCF0"/>
<path d="M82.6679 198.125C81.3928 198.125 79.9051 197.488 79.2676 194.725L45.6888 59.9848C43.7761 52.1214 41.8634 49.5711 36.3378 48.5085L33.1499 47.8709C31.2372 47.4459 30.1746 46.5958 30.1746 45.1081C30.1746 43.6205 31.4497 42.9829 33.3624 42.9829H69.704C71.6167 42.9829 72.6793 43.833 72.6793 45.3206C72.6793 46.5958 71.6167 47.6584 69.0664 47.8709L65.0285 48.296C60.1404 48.721 59.0778 51.0588 60.5655 57.222L85.2182 159.446C85.6433 161.146 87.3435 161.146 87.7685 159.446L112.209 61.685C114.121 53.6091 112.421 49.1461 105.833 48.296L102.645 47.8709C100.095 47.4459 99.0323 46.5958 99.0323 45.3206C99.0323 43.833 100.095 42.9829 102.008 42.9829H131.761C133.674 42.9829 134.949 43.6205 134.949 45.1081C134.949 46.5958 133.886 47.4459 131.973 47.8709L128.786 48.5085C123.26 49.5711 120.71 54.0341 118.797 61.8975L85.8558 194.725C85.2182 197.488 83.7306 198.125 82.6679 198.125ZM115.964 196C114.052 196 112.777 195.362 112.777 193.875C112.777 192.387 113.839 191.537 115.752 191.112L118.94 190.474C124.465 189.412 127.016 184.949 128.928 177.085L161.87 44.258C162.507 41.4952 163.995 40.8576 165.057 40.8576C166.333 40.8576 167.82 41.4952 168.458 44.258L202.037 178.998C203.949 186.861 205.862 189.412 211.388 190.474L214.575 191.112C216.488 191.537 217.551 192.387 217.551 193.875C217.551 195.362 216.276 196 214.363 196H178.021C176.109 196 175.046 195.15 175.046 193.662C175.046 192.387 176.109 191.324 178.659 191.112L182.697 190.687C187.585 190.262 188.648 187.924 187.16 181.761L179.084 148.82C178.234 145.207 175.896 143.294 172.071 143.294H149.756C145.93 143.294 143.805 144.994 142.742 148.82L135.517 177.298C133.391 185.374 135.304 189.837 141.892 190.687L145.08 191.112C147.63 191.537 148.693 192.387 148.693 193.662C148.693 195.15 147.63 196 145.718 196H115.964ZM149.118 136.918H172.496C174.621 136.918 175.684 135.431 175.259 133.305L161.657 76.3491H160.594L146.355 133.305C145.93 135.431 146.993 136.918 149.118 136.918Z" fill="black"/>
</g>
<defs>
<clipPath id="clip0_3557_1814">
<rect width="248" height="248" rx="16" fill="white"/>
</clipPath>
</defs>
</svg>

